<svg version="1.1" xmlns="http://www.w3.org/2000/svg" xmlns:xlink="http://www.w3.org/1999/xlink" width="100" height="100" viewBox="130,314,100,100"><g data-paper-data="{&quot;layerid&quot;:&quot;document&quot;,&quot;name&quot;:&quot;document&quot;,&quot;stage&quot;:false,&quot;vgx&quot;:{&quot;signed&quot;:true,&quot;selected&quot;:false,&quot;unsigned&quot;:false,&quot;contained&quot;:false,&quot;visible&quot;:true,&quot;id&quot;:&quot;6j2y5hk0c_1683096722901112&quot;,&quot;changeset&quot;:&quot;ilvi17ux7_1683096722901113&quot;,&quot;staticid&quot;:&quot;q7sqe0igf_1683096722901114&quot;,&quot;name&quot;:&quot;document&quot;,&quot;altname&quot;:&quot;&quot;,&quot;owner&quot;:null,&quot;layer&quot;:true,&quot;class&quot;:&quot;item&quot;,&quot;type&quot;:&quot;default&quot;,&quot;ui&quot;:false,&quot;actor&quot;:false,&quot;props&quot;:{},&quot;locked&quot;:false,&quot;strokeScaling&quot;:true,&quot;container&quot;:false,&quot;layerid&quot;:&quot;document&quot;}}" id="document" fill="#ffffff" fill-rule="nonzero" stroke="#000000" stroke-width="0" stroke-linecap="butt" stroke-linejoin="miter" stroke-miterlimit="10" stroke-dasharray="" stroke-dashoffset="0" font-family="none" font-weight="none" font-size="none" text-anchor="none" style="mix-blend-mode: normal"><rect x="910" y="1570" transform="scale(0.14286,0.2)" width="700" height="500" data-paper-data="{&quot;vgx&quot;:{&quot;signed&quot;:true,&quot;selected&quot;:false,&quot;unsigned&quot;:false,&quot;contained&quot;:false,&quot;visible&quot;:true,&quot;id&quot;:&quot;m502tjes0_1683096723027234&quot;,&quot;changeset&quot;:&quot;xbzfygh3l_1683096723027235&quot;,&quot;staticid&quot;:&quot;gzzsz5k7n_1683096723027236&quot;,&quot;name&quot;:&quot;Shape&quot;,&quot;altname&quot;:&quot;&quot;,&quot;owner&quot;:null,&quot;layer&quot;:false,&quot;class&quot;:&quot;document&quot;,&quot;type&quot;:&quot;document&quot;,&quot;ui&quot;:false,&quot;actor&quot;:true,&quot;props&quot;:{},&quot;locked&quot;:false,&quot;strokeScaling&quot;:true,&quot;container&quot;:false},&quot;v_data&quot;:null}" id="Shape 1" vector-effect="non-scaling-stroke"/></g><g fill-opacity="0" fill="#000000" fill-rule="nonzero" stroke="#0d4d68" stroke-width="3" stroke-linecap="round" stroke-linejoin="round" stroke-miterlimit="10" stroke-dasharray="" stroke-dashoffset="0" font-family="none" font-weight="none" font-size="none" text-anchor="none" style="mix-blend-mode: normal"><g data-paper-data="{&quot;layerid&quot;:&quot;stage&quot;,&quot;name&quot;:&quot;stage&quot;,&quot;stage&quot;:false,&quot;vgx&quot;:{&quot;signed&quot;:true,&quot;selected&quot;:false,&quot;unsigned&quot;:false,&quot;contained&quot;:false,&quot;visible&quot;:true,&quot;id&quot;:&quot;bk170fhs3_1683096722902115&quot;,&quot;changeset&quot;:&quot;25pokr2h3_1683096722902116&quot;,&quot;staticid&quot;:&quot;i7q2goacx_1683096722902117&quot;,&quot;name&quot;:&quot;stage&quot;,&quot;altname&quot;:&quot;&quot;,&quot;owner&quot;:null,&quot;layer&quot;:true,&quot;class&quot;:&quot;item&quot;,&quot;type&quot;:&quot;default&quot;,&quot;ui&quot;:false,&quot;actor&quot;:false,&quot;props&quot;:{},&quot;locked&quot;:false,&quot;strokeScaling&quot;:true,&quot;container&quot;:false,&quot;layerid&quot;:&quot;stage&quot;}}" id="stage"><g id="layer1 1"><path d="M189.88687,355.27115c3.54052,-1.75374 7.55954,-2.7442 11.81998,-2.7442c4.26044,0 8.27947,0.99046 11.81998,2.7442c2.64578,1.31054 5.02435,3.04733 7.03675,5.11555c4.29284,4.4119 6.91947,10.33197 6.91947,16.83991c0,13.64124 -11.5404,24.69965 -25.77621,24.69965c-8.40784,0 -15.87546,-3.85742 -20.58062,-9.82614c-3.26143,-4.13727 -5.19559,-9.28895 -5.19559,-14.87352c0,-8.14204 -6.88812,-14.74247 -15.38504,-14.74247c-8.49692,0 -15.38504,6.60043 -15.38504,14.74247c0,8.14204 6.88812,14.74247 15.38504,14.74247c2.45569,0 4.777,-0.55131 6.83649,-1.53181c0.239,-0.19367 0.54634,-0.26999 0.81944,-0.42026c0.27068,-0.14909 0.53618,-0.30584 0.79617,-0.46995c0.54324,-0.18465 1.12804,-0.28515 1.73734,-0.28515c2.86944,0 5.19559,2.22899 5.19559,4.97859c0,1.37485 -0.58158,2.61955 -1.52186,3.5205c-0.32168,0.30822 -0.62907,0.66971 -1.02578,0.88892c-3.77985,2.08423 -8.16334,3.27634 -12.83739,3.27634c-14.23581,0 -25.77621,-11.05841 -25.77621,-24.69965v-44.05273" id="Path 1"/><path d="M213.46695,367.7207c2.26168,2.56657 3.62494,5.88366 3.62494,9.50585c0,8.14204 -6.88811,14.74247 -15.38503,14.74247c-8.49692,0 -15.38503,-6.60043 -15.38503,-14.74247c0,-5.58456 -1.93416,-10.73624 -5.19559,-14.87351c-4.70517,-5.96871 -12.17278,-9.82613 -20.58062,-9.82613c-5.7666,0 -11.09091,1.81454 -15.38503,4.88028v-24.23335" id="Path 1"/><path d="M199.69042,362.6096c0.65694,0.09929 1.33043,0.15085 2.01649,0.15085c0.68606,0 1.35955,-0.05156 2.01649,-0.15085c3.89428,0.48852 7.33037,2.37259 9.7436,5.11113c-3.37994,2.11836 -7.41992,3.34995 -11.76009,3.34995c-4.34017,0 -8.38015,-1.23159 -11.76009,-3.34995c-2.94671,-1.84684 -5.39175,-4.36769 -7.09664,-7.33406c-1.69284,-2.9454 -2.65598,-6.33003 -2.65598,-9.93023c0,-11.38493 9.63157,-20.61423 21.51272,-20.61423c9.85747,0 18.16643,6.35307 20.71093,15.01933c0.06253,0.21297 0.12158,0.42734 0.17708,0.64305c0.07371,0.31326 -0.00097,0.6857 -0.00097,1.02331c0,1.17738 -0.60235,2.22861 -1.36526,3.00078c-0.77518,0.77217 -1.71303,1.24296 -2.89499,1.24296c-1.16772,-0.00924 -2.24497,-0.47846 -3.01245,-1.24296c-0.53799,-0.5359 -0.93024,-1.20621 -1.11992,-1.95982c-0.0774,-0.30815 -0.27074,-0.58862 -0.27985,-0.91727c-1.70715,-4.87505 -6.55208,-8.49916 -12.21457,-8.49916c-7.09149,0 -12.84029,5.50869 -12.84029,12.30401c0,1.70861 0.36345,3.33587 1.0203,4.81468c1.70279,3.83358 5.37736,6.66949 9.8035,7.33848z" id="Path 1"/><path d="M134.76941,333.17384c0,-2.90163 2.32614,-5.25387 5.19558,-5.25387c2.86944,0 5.19558,2.35224 5.19558,5.25387" id="Path 1"/></g></g></g></svg>